<svg width="996" height="1408" viewBox="0 0 996 1408" fill="none" xmlns="http://www.w3.org/2000/svg">
<path fill-rule="evenodd" clip-rule="evenodd" d="M48.1836 519.291H67.3287H141.267V538.428H67.3287V613.823H48.1836V538.428V519.291ZM606.063 839.431V819.093H596.717V813.373H606.063H611.452H611.785V839.431H638.954V845.151H611.785V860.044V924.383H615.113V943.519H473.541V1348.59V1367.73H454.396H342.924V1348.59H454.396V943.519V936.964H439.902H434.18H427.762V924.383H434.18V813.373H463.324V819.093H439.902V924.383H454.396H473.541H534.978V819.093H510.475V813.373L534.978 813.373L540.7 813.373L550.045 813.373V819.093H540.7V924.383H606.063V860.044V845.151V839.431ZM269.214 739.008H274.937V723.542H276.124H282.433H288.155V712.779H282.433H67.3287V707.391H48.1836V712.779V723.542V764.522H67.3287V723.542H269.214V739.008ZM368.44 925.45H366.757L376.049 925.644V938.226L288.155 936.964H282.433H121.637V943.519V1348.59H231.609V1367.73H121.637H102.492V1348.59V943.519H67.3287H48.1836V936.964V924.383V849.7H67.3287V924.383H102.492H121.637H269.214C269.214 884.817 269.214 833.423 269.214 793.857H274.937C274.937 805.106 274.937 802.125 274.937 813.373H362.718H368.44V819.093V925.45ZM362.718 925.365V819.093H274.937V903.498V924.383L362.718 925.365ZM759.806 723.542H717.533V839.431V845.151V924.383H763.94V943.519H705.383V924.383H711.81V845.151H684.641V839.431H711.81V712.779H717.533H759.806V723.542ZM873.734 261.22V217.356H892.879V261.22V280.357V355.349H873.734V328.687V280.357V261.22ZM465.904 261.22V59.4578V40.3212H485.049H594.677V59.4578H485.049V208.346V261.22V280.357V328.687V519.291V525.061H539.425V519.291H576.895V525.061H614.417V538.428H576.895V723.542H576.731H563.741H417.881V712.779H563.741V538.428H539.425H485.049H465.904H444.396V519.291H465.904V280.357V261.22ZM873.734 59.4578H764.106V40.3212H873.734H892.879V59.4578V134.451H873.734V59.4578ZM806.478 712.779H874.486L927.463 659.623V593.524L873.734 541.684V438.255H892.879V533.562L946.608 585.402V666.464L947.14 666.995L892.879 721.231V723.542V774.042H873.734V723.542H806.478V712.779ZM343.361 712.779H367.104V723.542H343.361H337.638V712.779V538.428H234.326V519.291H350.281V538.428H343.361V712.779ZM892.879 844.568V924.383V943.519H873.734H831.499V924.383H873.734V844.568H892.879Z" fill="#868786"/>
<path d="M156.232 632.31C156.72 632.635 157.683 632.906 158.564 632.906C160.719 632.906 161.764 631.673 161.764 630.264C161.764 628.922 160.977 628.176 159.431 627.58C158.171 627.092 157.615 626.672 157.615 625.818C157.615 625.195 158.089 624.45 159.336 624.45C160.163 624.45 160.774 624.72 161.072 624.883L161.398 623.921C160.991 623.691 160.313 623.474 159.377 623.474C157.601 623.474 156.421 624.531 156.421 625.954C156.421 627.241 157.343 628.014 158.835 628.542C160.069 629.017 160.557 629.505 160.557 630.358C160.557 631.28 159.852 631.917 158.645 631.917C157.831 631.917 157.059 631.646 156.53 631.321L156.232 632.31Z" fill="#1A1A18"/>
<path d="M166.604 632.756V628.866L169.669 623.622H168.326L167.011 626.142C166.658 626.833 166.346 627.43 166.089 628.026H166.062C165.777 627.389 165.506 626.833 165.153 626.142L163.865 623.622H162.523L165.411 628.88V632.756H166.604Z" fill="#1A1A18"/>
<path d="M170.618 632.756H171.797V629.097C172.068 629.164 172.394 629.178 172.746 629.178C173.899 629.178 174.916 628.839 175.539 628.175C176 627.701 176.245 627.05 176.245 626.224C176.245 625.41 175.946 624.746 175.444 624.313C174.902 623.825 174.048 623.554 172.882 623.554C171.933 623.554 171.187 623.635 170.618 623.73V632.756ZM171.797 624.583C172.001 624.529 172.394 624.489 172.909 624.489C174.211 624.489 175.065 625.072 175.065 626.278C175.065 627.538 174.197 628.229 172.773 628.229C172.38 628.229 172.055 628.202 171.797 628.134V624.583Z" fill="#1A1A18"/>
<path d="M177.831 623.622V632.756H179.011V623.622H177.831Z" fill="#1A1A18"/>
<path d="M185.79 629.883L186.767 632.756H188.027L184.909 623.622H183.485L180.38 632.756H181.601L182.55 629.883H185.79ZM182.793 628.961L183.688 626.319C183.865 625.763 184.014 625.207 184.149 624.665H184.177C184.312 625.193 184.448 625.735 184.651 626.332L185.546 628.961H182.793Z" fill="#1A1A18"/>
<path d="M189.37 632.756H194.454V631.767H190.549V623.622H189.37V632.756Z" fill="#1A1A18"/>
<path d="M196.882 632.756V628.853C196.882 627.335 196.855 626.237 196.787 625.085L196.828 625.072C197.289 626.061 197.899 627.105 198.536 628.121L201.437 632.756H202.631V623.622H201.519V627.443C201.519 628.866 201.546 629.977 201.654 631.197L201.627 631.211C201.193 630.276 200.665 629.314 199.987 628.243L197.058 623.622H195.77V632.756H196.882Z" fill="#1A1A18"/>
<path d="M204.692 623.622V632.756H205.871V623.622H204.692Z" fill="#1A1A18"/>
<path d="M212.651 629.883L213.627 632.756H214.888L211.77 623.622H210.346L207.241 632.756H208.461L209.41 629.883H212.651ZM209.654 628.961L210.549 626.319C210.726 625.763 210.875 625.207 211.01 624.665H211.037C211.173 625.193 211.309 625.735 211.512 626.332L212.407 628.961H209.654Z" fill="#1A1A18"/>
<path d="M434.769 632.756H435.948V629.097C436.22 629.164 436.545 629.178 436.897 629.178C438.05 629.178 439.067 628.839 439.69 628.175C440.151 627.701 440.396 627.05 440.396 626.224C440.396 625.41 440.097 624.746 439.596 624.313C439.053 623.825 438.199 623.554 437.033 623.554C436.084 623.554 435.338 623.635 434.769 623.73V632.756ZM435.948 624.583C436.152 624.529 436.545 624.489 437.06 624.489C438.362 624.489 439.216 625.072 439.216 626.278C439.216 627.538 438.348 628.229 436.924 628.229C436.531 628.229 436.206 628.202 435.948 628.134V624.583Z" fill="#1A1A18"/>
<path d="M445.683 623.474C443.243 623.474 441.439 625.371 441.439 628.271C441.439 631.036 443.135 632.906 445.548 632.906C447.88 632.906 449.792 631.239 449.792 628.095C449.792 625.384 448.178 623.474 445.683 623.474ZM445.629 624.436C447.595 624.436 448.544 626.333 448.544 628.149C448.544 630.223 447.487 631.944 445.616 631.944C443.758 631.944 442.701 630.196 442.701 628.244C442.701 626.238 443.677 624.436 445.629 624.436Z" fill="#1A1A18"/>
<path d="M451.324 632.756H452.504V629.273L453.371 628.27L456.382 632.756H457.778L454.212 627.498L457.52 623.622H456.056L453.263 627.05C453.033 627.348 452.788 627.673 452.545 628.026H452.504V623.622H451.324V632.756Z" fill="#1A1A18"/>
<path d="M462.144 623.474C459.703 623.474 457.9 625.371 457.9 628.271C457.9 631.036 459.595 632.906 462.008 632.906C464.34 632.906 466.252 631.239 466.252 628.095C466.252 625.384 464.639 623.474 462.144 623.474ZM462.09 624.436C464.056 624.436 465.005 626.333 465.005 628.149C465.005 630.223 463.947 631.944 462.076 631.944C460.219 631.944 459.161 630.196 459.161 628.244C459.161 626.238 460.137 624.436 462.09 624.436ZM462.619 621.508L461.358 623.094H462.334L464.056 621.508H462.619Z" fill="#1A1A18"/>
<path d="M469.656 629.64C469.656 631.429 469.032 631.903 467.974 631.903C467.581 631.903 467.229 631.822 466.985 631.727L466.808 632.689C467.107 632.811 467.635 632.906 468.069 632.906C469.642 632.906 470.835 632.161 470.835 629.735V623.623H469.656V629.64Z" fill="#1A1A18"/>
<path d="M424.057 649.02C424.654 649.088 425.358 649.129 426.199 649.129C427.975 649.129 429.386 648.668 430.24 647.814C431.094 646.974 431.555 645.754 431.555 644.263C431.555 642.786 431.08 641.729 430.267 640.983C429.467 640.238 428.26 639.845 426.565 639.845C425.63 639.845 424.776 639.926 424.057 640.035V649.02ZM425.236 640.902C425.548 640.835 426.009 640.78 426.62 640.78C429.114 640.78 430.335 642.149 430.321 644.304C430.321 646.77 428.952 648.18 426.43 648.18C425.969 648.18 425.535 648.167 425.236 648.112V640.902Z" fill="#1A1A18"/>
<path d="M432.464 649.047H439.135V648.057H434.023V648.017L439.067 640.631V639.912H432.897V640.902H437.535V640.942L432.464 648.356V649.047Z" fill="#1A1A18"/>
<path d="M440.585 639.912V649.047H441.765V639.912H440.585Z" fill="#1A1A18"/>
<path d="M448.558 643.789H445.006V640.902H448.762V639.912H443.826V649.047H448.965V648.057H445.006V644.764H448.558V643.789Z" fill="#1A1A18"/>
<path d="M456.639 647.813C456.164 648.043 455.433 648.193 454.714 648.193C452.49 648.193 451.202 646.756 451.202 644.52C451.202 642.121 452.626 640.752 454.768 640.752C455.527 640.752 456.164 640.915 456.612 641.132L456.897 640.17C456.585 640.007 455.866 639.763 454.727 639.763C451.893 639.763 449.955 641.701 449.955 644.56C449.955 647.555 451.893 649.195 454.47 649.195C455.581 649.195 456.449 648.965 456.883 648.748L456.639 647.813Z" fill="#1A1A18"/>
<path d="M458.361 639.912V649.047H459.541V639.912H458.361Z" fill="#1A1A18"/>
<path d="M466.632 650.918C466.429 651 466.239 651.027 466.036 651.027C465.67 651.027 465.412 650.837 465.412 650.484C465.412 649.983 465.968 649.414 466.537 649.062C466.605 649.062 466.686 649.048 466.741 649.048V648.059H462.782V644.765H466.334V643.79H462.782V640.903H466.537V639.913H461.602V649.048H465.561C465.073 649.373 464.476 650.01 464.476 650.742C464.476 651.447 464.951 651.84 465.724 651.84C466.13 651.84 466.497 651.745 466.808 651.555L466.632 650.918Z" fill="#1A1A18"/>
<path d="M474.415 647.813C473.94 648.043 473.208 648.193 472.49 648.193C470.266 648.193 468.978 646.756 468.978 644.52C468.978 642.121 470.401 640.752 472.544 640.752C473.303 640.752 473.94 640.915 474.388 641.132L474.672 640.17C474.361 640.007 473.642 639.763 472.503 639.763C469.669 639.763 467.73 641.701 467.73 644.56C467.73 647.555 469.669 649.195 472.245 649.195C473.357 649.195 474.225 648.965 474.659 648.748L474.415 647.813Z" fill="#1A1A18"/>
<path d="M479.405 649.047V645.157L482.469 639.912H481.126L479.811 642.433C479.459 643.124 479.147 643.721 478.889 644.317H478.862C478.577 643.68 478.306 643.124 477.954 642.433L476.666 639.912H475.323L478.211 645.171V649.047H479.405Z" fill="#1A1A18"/>
<path d="M146.294 831.115V830.126H142.389V826.657L144.206 825.355V824.42L142.389 825.735V821.981H141.21V826.548L140.071 827.375V828.296L141.21 827.456V831.115H146.294Z" fill="#1A1A18"/>
<path d="M152.328 828.242L153.304 831.115H154.565L151.447 821.981H150.023L146.918 831.115H148.138L149.087 828.242H152.328ZM149.331 827.32L150.226 824.678C150.403 824.122 150.552 823.566 150.687 823.024H150.714C150.85 823.553 150.986 824.095 151.189 824.691L152.084 827.32H149.331Z" fill="#1A1A18"/>
<path d="M155.284 831.115H161.955V830.126H156.843V830.085L161.887 822.699V821.981H155.718V822.97H160.355V823.01L155.284 830.424V831.115Z" fill="#1A1A18"/>
<path d="M163.406 821.981V831.115H164.585V821.981H163.406Z" fill="#1A1A18"/>
<path d="M171.378 825.857H167.826V822.97H171.582V821.981H166.646V831.115H171.785V830.126H167.826V826.832H171.378V825.857Z" fill="#1A1A18"/>
<path d="M174.429 831.115V827.212C174.429 825.694 174.402 824.596 174.334 823.444L174.375 823.431C174.836 824.42 175.446 825.464 176.083 826.48L178.984 831.115H180.178V821.981H179.066V825.803C179.066 827.225 179.093 828.337 179.202 829.557L179.175 829.57C178.741 828.635 178.212 827.673 177.534 826.602L174.605 821.981H173.317V831.115H174.429Z" fill="#1A1A18"/>
<path d="M182.239 831.115H183.419V827.632L184.286 826.629L187.296 831.115H188.693L185.127 825.857L188.435 821.981H186.971L184.178 825.409C183.947 825.707 183.703 826.033 183.459 826.385H183.419V821.981H182.239V831.115Z" fill="#1A1A18"/>
<path d="M194.442 828.242L195.419 831.115H196.679L193.561 821.981H192.137L189.032 831.115H190.253L191.202 828.242H194.442ZM191.445 827.32L192.34 824.678C192.517 824.122 192.666 823.566 192.801 823.024H192.828C192.964 823.553 193.1 824.095 193.303 824.691L194.198 827.32H191.445Z" fill="#1A1A18"/>
<path d="M295.23 870.033H296.409V866.374C296.681 866.442 297.006 866.455 297.358 866.455C298.511 866.455 299.528 866.116 300.151 865.452C300.612 864.978 300.857 864.327 300.857 863.501C300.857 862.687 300.558 862.023 300.057 861.59C299.514 861.102 298.66 860.831 297.494 860.831C296.545 860.831 295.799 860.912 295.23 861.007V870.033ZM296.409 861.861C296.613 861.806 297.006 861.766 297.521 861.766C298.823 861.766 299.677 862.349 299.677 863.555C299.677 864.816 298.809 865.507 297.385 865.507C296.992 865.507 296.667 865.479 296.409 865.411V861.861Z" fill="#1A1A18"/>
<path d="M302.443 870.033H303.623V866.076H304.734C305.806 866.116 306.294 866.591 306.565 867.851C306.823 868.99 307.026 869.762 307.175 870.033H308.395C308.206 869.681 307.988 868.8 307.69 867.526C307.473 866.577 307.053 865.927 306.348 865.683V865.642C307.311 865.317 308.07 864.517 308.07 863.311C308.07 862.606 307.813 861.983 307.351 861.576C306.782 861.061 305.969 860.831 304.707 860.831C303.894 860.831 303.04 860.899 302.443 861.021V870.033ZM303.623 861.847C303.812 861.793 304.219 861.739 304.788 861.739C306.036 861.753 306.89 862.267 306.89 863.446C306.89 864.49 306.09 865.181 304.829 865.181H303.623V861.847Z" fill="#1A1A18"/>
<path d="M314.523 867.16L315.5 870.033H316.761L313.642 860.899H312.218L309.114 870.033H310.334L311.283 867.16H314.523ZM311.527 866.238L312.422 863.596C312.598 863.04 312.747 862.484 312.883 861.942H312.91C313.046 862.471 313.181 863.013 313.385 863.609L314.28 866.238H311.527Z" fill="#1A1A18"/>
<path d="M318.104 870.033H323.188V869.044H319.283V860.899H318.104V870.033Z" fill="#1A1A18"/>
<path d="M325.615 870.033V866.13C325.615 864.612 325.588 863.514 325.52 862.362L325.561 862.349C326.022 863.338 326.632 864.382 327.269 865.398L330.171 870.033H331.364V860.899H330.252V864.721C330.252 866.143 330.279 867.255 330.388 868.474L330.361 868.488C329.927 867.553 329.398 866.591 328.72 865.52L325.792 860.899H324.504V870.033H325.615Z" fill="#1A1A18"/>
<path d="M333.425 860.899V870.033H334.605V860.899H333.425Z" fill="#1A1A18"/>
<path d="M341.384 867.16L342.361 870.033H343.621L340.503 860.899H339.079L335.974 870.033H337.195L338.144 867.16H341.384ZM338.388 866.238L339.283 863.596C339.459 863.04 339.608 862.484 339.744 861.942H339.771C339.906 862.471 340.042 863.013 340.245 863.609L341.14 866.238H338.388Z" fill="#1A1A18"/>
<path d="M294.985 886.322H296.165V882.663C296.436 882.731 296.761 882.744 297.114 882.744C298.266 882.744 299.283 882.405 299.907 881.741C300.368 881.267 300.612 880.616 300.612 879.79C300.612 878.976 300.314 878.312 299.812 877.879C299.27 877.391 298.415 877.12 297.25 877.12C296.3 877.12 295.554 877.201 294.985 877.296V886.322ZM296.165 878.15C296.368 878.096 296.761 878.055 297.277 878.055C298.578 878.055 299.433 878.638 299.433 879.844C299.433 881.105 298.565 881.796 297.141 881.796C296.748 881.796 296.422 881.768 296.165 881.7V878.15Z" fill="#1A1A18"/>
<path d="M302.199 877.188V886.322H303.378V877.188H302.199Z" fill="#1A1A18"/>
<path d="M310.171 881.064H306.619V878.177H310.375V877.188H305.44V886.322H310.578V885.333H306.619V882.04H310.171V881.064Z" fill="#1A1A18"/>
<path d="M318.252 885.09C317.778 885.321 317.046 885.47 316.327 885.47C314.103 885.47 312.815 884.034 312.815 881.797C312.815 879.398 314.239 878.029 316.381 878.029C317.141 878.029 317.778 878.192 318.225 878.409L318.51 877.447C318.198 877.284 317.48 877.04 316.34 877.04C313.507 877.04 311.568 878.978 311.568 881.838C311.568 884.833 313.507 886.473 316.083 886.473C317.195 886.473 318.063 886.242 318.497 886.026L318.252 885.09Z" fill="#1A1A18"/>
<path d="M328.991 885.09C328.516 885.321 327.785 885.47 327.066 885.47C324.842 885.47 323.554 884.034 323.554 881.797C323.554 879.398 324.978 878.029 327.12 878.029C327.88 878.029 328.516 878.192 328.964 878.409L329.249 877.447C328.937 877.284 328.219 877.04 327.079 877.04C324.246 877.04 322.307 878.978 322.307 881.838C322.307 884.833 324.246 886.473 326.822 886.473C327.934 886.473 328.801 886.242 329.235 886.026L328.991 885.09Z" fill="#1A1A18"/>
<path d="M331.188 886.473C331.689 886.473 332.001 886.107 332.001 885.619C332.001 885.118 331.676 884.765 331.201 884.765C330.727 884.765 330.388 885.118 330.388 885.619C330.388 886.107 330.713 886.473 331.174 886.473H331.188Z" fill="#1A1A18"/>
<path d="M337.222 877.04C334.781 877.04 332.978 878.938 332.978 881.838C332.978 884.602 334.673 886.473 337.086 886.473C339.418 886.473 341.33 884.806 341.33 881.662C341.33 878.951 339.716 877.04 337.222 877.04ZM337.167 878.002C339.133 878.002 340.082 879.9 340.082 881.716C340.082 883.789 339.025 885.511 337.154 885.511C335.296 885.511 334.239 883.762 334.239 881.811C334.239 879.805 335.215 878.002 337.167 878.002Z" fill="#1A1A18"/>
<path d="M342.875 886.473C343.377 886.473 343.689 886.107 343.689 885.619C343.689 885.118 343.363 884.765 342.889 884.765C342.414 884.765 342.076 885.118 342.076 885.619C342.076 886.107 342.401 886.473 342.862 886.473H342.875Z" fill="#1A1A18"/>
<path d="M457.557 878.863C458.045 879.188 459.007 879.459 459.889 879.459C462.044 879.459 463.089 878.226 463.089 876.817C463.089 875.475 462.302 874.729 460.756 874.133C459.496 873.645 458.94 873.225 458.94 872.371C458.94 871.748 459.414 871.002 460.661 871.002C461.488 871.002 462.099 871.273 462.397 871.436L462.723 870.474C462.316 870.243 461.638 870.026 460.702 870.026C458.926 870.026 457.746 871.083 457.746 872.507C457.746 873.794 458.668 874.566 460.16 875.095C461.394 875.57 461.882 876.057 461.882 876.911C461.882 877.833 461.177 878.47 459.97 878.47C459.156 878.47 458.384 878.199 457.855 877.874L457.557 878.863Z" fill="#1A1A18"/>
<path d="M464.702 879.311H465.882V875.651C466.153 875.719 466.479 875.733 466.831 875.733C467.983 875.733 469 875.394 469.624 874.73C470.085 874.255 470.329 873.605 470.329 872.778C470.329 871.965 470.031 871.301 469.529 870.867C468.987 870.379 468.132 870.108 466.966 870.108C466.017 870.108 465.271 870.189 464.702 870.284V879.311ZM465.882 871.138C466.085 871.084 466.479 871.043 466.994 871.043C468.296 871.043 469.15 871.626 469.15 872.832C469.15 874.093 468.282 874.784 466.858 874.784C466.465 874.784 466.139 874.756 465.882 874.689V871.138Z" fill="#1A1A18"/>
<path d="M471.916 870.176V879.311H473.095V870.176H471.916Z" fill="#1A1A18"/>
<path d="M474.533 879.311H481.204V878.321H476.092V878.28L481.136 870.894V870.176H474.966V871.165H479.604V871.206L474.533 878.619V879.311ZM477.936 869.553C478.316 869.553 478.6 869.214 478.6 868.861C478.6 868.509 478.316 868.184 477.95 868.184C477.556 868.184 477.258 868.509 477.258 868.861C477.258 869.214 477.556 869.553 477.923 869.553H477.936Z" fill="#1A1A18"/>
<path d="M487.373 876.437L488.349 879.311H489.61L486.491 870.176H485.068L481.963 879.311H483.183L484.132 876.437H487.373ZM484.376 875.515L485.271 872.873C485.448 872.317 485.596 871.761 485.732 871.219H485.759C485.895 871.748 486.03 872.29 486.234 872.886L487.129 875.515H484.376Z" fill="#1A1A18"/>
<path d="M490.953 879.311H492.132V875.353H493.244C494.315 875.394 494.803 875.868 495.074 877.128C495.332 878.267 495.535 879.039 495.685 879.311H496.905C496.715 878.958 496.498 878.077 496.2 876.803C495.983 875.854 495.563 875.204 494.857 874.96V874.919C495.82 874.594 496.579 873.795 496.579 872.588C496.579 871.884 496.322 871.26 495.861 870.854C495.291 870.339 494.478 870.108 493.217 870.108C492.403 870.108 491.549 870.176 490.953 870.298V879.311ZM492.132 871.125C492.322 871.07 492.729 871.016 493.298 871.016C494.546 871.03 495.4 871.545 495.4 872.724C495.4 873.768 494.6 874.458 493.339 874.458H492.132V871.125Z" fill="#1A1A18"/>
<path d="M499.359 879.311V875.407C499.359 873.89 499.332 872.792 499.264 871.639L499.305 871.626C499.766 872.616 500.376 873.659 501.013 874.675L503.914 879.311H505.108V870.176H503.996V873.998C503.996 875.421 504.023 876.532 504.132 877.752L504.105 877.766C503.671 876.83 503.142 875.868 502.464 874.797L499.535 870.176H498.247V879.311H499.359Z" fill="#1A1A18"/>
<path d="M507.169 870.176V879.311H508.349V870.176H507.169Z" fill="#1A1A18"/>
<path d="M515.128 876.437L516.104 879.311H517.365L514.247 870.176H512.823L509.718 879.311H510.939L511.888 876.437H515.128ZM512.131 875.515L513.026 872.873C513.203 872.317 513.352 871.761 513.487 871.219H513.514C513.65 871.748 513.786 872.29 513.989 872.886L514.884 875.515H512.131Z" fill="#1A1A18"/>
<path d="M551.359 879.311H552.552V871.179H555.345V870.176H548.579V871.179H551.359V879.311Z" fill="#1A1A18"/>
<path d="M559.697 870.026C557.257 870.026 555.453 871.924 555.453 874.824C555.453 877.589 557.149 879.459 559.562 879.459C561.894 879.459 563.806 877.792 563.806 874.648C563.806 871.937 562.192 870.026 559.697 870.026ZM559.643 870.989C561.609 870.989 562.558 872.886 562.558 874.702C562.558 876.776 561.501 878.497 559.63 878.497C557.772 878.497 556.715 876.749 556.715 874.797C556.715 872.791 557.691 870.989 559.643 870.989Z" fill="#1A1A18"/>
<path d="M569.867 876.437L570.843 879.311H572.104L568.985 870.176H567.562L564.457 879.311H565.677L566.626 876.437H569.867ZM566.87 875.515L567.765 872.873C567.942 872.317 568.09 871.761 568.226 871.219H568.253C568.389 871.748 568.524 872.29 568.728 872.886L569.623 875.515H566.87Z" fill="#1A1A18"/>
<path d="M573.447 879.311H578.531V878.321H574.626V870.176H573.447V879.311Z" fill="#1A1A18"/>
<path d="M584.578 874.052H581.026V871.165H584.782V870.176H579.846V879.311H584.985V878.321H581.026V875.028H584.578V874.052Z" fill="#1A1A18"/>
<path d="M588.47 879.311H589.663V871.179H592.456V870.176H585.69V871.179H588.47V879.311Z" fill="#1A1A18"/>
<path d="M597.175 876.437L598.151 879.311H599.412L596.293 870.176H594.869L591.765 879.311H592.985L593.934 876.437H597.175ZM594.178 875.515L595.073 872.873C595.249 872.317 595.398 871.761 595.534 871.219H595.561C595.697 871.748 595.832 872.29 596.036 872.886L596.931 875.515H594.178Z" fill="#1A1A18"/>
<path d="M652.389 870.176V879.311H653.569V875.028H657.989V879.311H659.182V870.176H657.989V873.998H653.569V870.176H652.389Z" fill="#1A1A18"/>
<path d="M664.931 870.026C662.49 870.026 660.687 871.924 660.687 874.824C660.687 877.589 662.382 879.459 664.795 879.459C667.127 879.459 669.039 877.792 669.039 874.648C669.039 871.937 667.425 870.026 664.931 870.026ZM664.876 870.989C666.842 870.989 667.791 872.886 667.791 874.702C667.791 876.776 666.734 878.497 664.863 878.497C663.006 878.497 661.948 876.749 661.948 874.797C661.948 872.791 662.924 870.989 664.876 870.989Z" fill="#1A1A18"/>
<path d="M670.571 879.311H675.656V878.321H671.751V870.176H670.571V879.311Z" fill="#1A1A18"/>
<path d="M774.448 831.166H775.627V827.683L776.495 826.68L779.505 831.166H780.902L777.336 825.908L780.644 822.032H779.18L776.387 825.46C776.156 825.758 775.912 826.084 775.668 826.436H775.627V822.032H774.448V831.166Z" fill="#1A1A18"/>
<path d="M781.783 822.033V827.413C781.783 830.246 783.193 831.316 785.064 831.316C787.044 831.316 788.522 830.164 788.522 827.359V822.033H787.329V827.44C787.329 829.46 786.461 830.355 785.105 830.355C783.885 830.355 782.977 829.487 782.977 827.44V822.033H781.783Z" fill="#1A1A18"/>
<path d="M796.712 829.934C796.237 830.164 795.505 830.314 794.786 830.314C792.562 830.314 791.274 828.877 791.274 826.641C791.274 824.242 792.698 822.873 794.84 822.873C795.6 822.873 796.237 823.036 796.684 823.253L796.969 822.29C796.657 822.128 795.939 821.884 794.8 821.884C791.966 821.884 790.027 823.822 790.027 826.681C790.027 829.677 791.966 831.316 794.542 831.316C795.654 831.316 796.522 831.086 796.956 830.869L796.712 829.934Z" fill="#1A1A18"/>
<path d="M798.433 822.032V831.166H799.613V826.883H804.033V831.166H805.226V822.032H804.033V825.854H799.613V822.032H798.433Z" fill="#1A1A18"/>
<path d="M808.386 831.166V827.263C808.386 825.745 808.358 824.647 808.291 823.495L808.331 823.482C808.792 824.471 809.402 825.515 810.04 826.531L812.941 831.166H814.134V822.032H813.023V825.854C813.023 827.276 813.05 828.387 813.158 829.607L813.131 829.621C812.697 828.686 812.168 827.724 811.491 826.653L808.562 822.032H807.274V831.166H808.386Z" fill="#1A1A18"/>
<path d="M816.196 822.032V831.166H817.375V822.032H816.196Z" fill="#1A1A18"/>
<path d="M824.154 828.293L825.131 831.166H826.392L823.273 822.032H821.849L818.745 831.166H819.965L820.914 828.293H824.154ZM821.158 827.371L822.053 824.729C822.229 824.173 822.378 823.617 822.514 823.075H822.541C822.676 823.604 822.812 824.146 823.016 824.742L823.911 827.371H821.158Z" fill="#1A1A18"/>
<path d="M780.13 628.816C780.13 630.605 779.506 631.079 778.449 631.079C778.055 631.079 777.703 630.998 777.459 630.903L777.282 631.865C777.581 631.987 778.109 632.082 778.543 632.082C780.116 632.082 781.309 631.337 781.309 628.911V622.799H780.13V628.816Z" fill="#1A1A18"/>
<path d="M787.994 629.06L788.97 631.934H790.231L787.113 622.799H785.689L782.584 631.934H783.804L784.754 629.06H787.994ZM784.997 628.139L785.892 625.496C786.069 624.94 786.218 624.384 786.353 623.843H786.38C786.516 624.371 786.652 624.913 786.855 625.509L787.75 628.139H784.997Z" fill="#1A1A18"/>
<path d="M791.574 631.907C792.171 631.975 792.875 632.016 793.716 632.016C795.493 632.016 796.903 631.555 797.757 630.701C798.611 629.861 799.072 628.641 799.072 627.15C799.072 625.672 798.597 624.615 797.784 623.87C796.984 623.125 795.777 622.732 794.082 622.732C793.147 622.732 792.292 622.813 791.574 622.921V631.907ZM792.754 623.789C793.065 623.721 793.526 623.667 794.136 623.667C796.631 623.667 797.852 625.036 797.838 627.191C797.838 629.657 796.469 631.067 793.947 631.067C793.486 631.067 793.052 631.053 792.754 630.999V623.789Z" fill="#1A1A18"/>
<path d="M805.132 629.06L806.109 631.934H807.37L804.251 622.799H802.827L799.723 631.934H800.943L801.892 629.06H805.132ZM802.136 628.139L803.031 625.496C803.207 624.94 803.356 624.384 803.492 623.843H803.519C803.654 624.371 803.79 624.913 803.994 625.509L804.889 628.139H802.136Z" fill="#1A1A18"/>
<path d="M808.712 631.934H813.796V630.944H809.892V622.799H808.712V631.934Z" fill="#1A1A18"/>
<path d="M816.224 631.934V628.031C816.224 626.513 816.197 625.415 816.129 624.263L816.17 624.249C816.631 625.239 817.241 626.282 817.878 627.299L820.78 631.934H821.973V622.799H820.861V626.621C820.861 628.044 820.888 629.155 820.997 630.375L820.97 630.389C820.536 629.453 820.007 628.491 819.329 627.421L816.4 622.799H815.112V631.934H816.224Z" fill="#1A1A18"/>
<path d="M824.034 622.799V631.934H825.214V622.799H824.034Z" fill="#1A1A18"/>
<path d="M831.993 629.06L832.97 631.934H834.23L831.112 622.799H829.688L826.583 631.934H827.804L828.753 629.06H831.993ZM828.996 628.139L829.891 625.496C830.068 624.94 830.217 624.384 830.352 623.843H830.38C830.515 624.371 830.651 624.913 830.854 625.509L831.749 628.139H828.996Z" fill="#1A1A18"/>
<path d="M652.974 303.384C653.462 303.71 654.425 303.98 655.306 303.98C657.462 303.98 658.506 302.747 658.506 301.338C658.506 299.996 657.72 299.25 656.174 298.654C654.913 298.166 654.357 297.746 654.357 296.893C654.357 296.269 654.832 295.524 656.079 295.524C656.906 295.524 657.516 295.795 657.815 295.957L658.14 294.995C657.733 294.765 657.056 294.548 656.12 294.548C654.344 294.548 653.164 295.605 653.164 297.028C653.164 298.316 654.086 299.088 655.578 299.617C656.811 300.091 657.299 300.579 657.299 301.433C657.299 302.354 656.595 302.991 655.388 302.991C654.574 302.991 653.802 302.72 653.273 302.395L652.974 303.384Z" fill="#1A1A18"/>
<path d="M664.838 300.959L665.815 303.832H667.075L663.957 294.698H662.533L659.428 303.832H660.649L661.598 300.959H664.838ZM661.842 300.037L662.737 297.395C662.913 296.839 663.062 296.283 663.198 295.741H663.225C663.36 296.27 663.496 296.812 663.699 297.408L664.594 300.037H661.842Z" fill="#1A1A18"/>
<path d="M668.418 303.832H673.502V302.843H669.598V294.698H668.418V303.832Z" fill="#1A1A18"/>
<path d="M677.99 294.548C675.55 294.548 673.747 296.446 673.747 299.345C673.747 302.11 675.442 303.98 677.855 303.98C680.187 303.98 682.099 302.314 682.099 299.17C682.099 296.459 680.485 294.548 677.99 294.548ZM677.936 295.51C679.902 295.51 680.851 297.407 680.851 299.224C680.851 301.297 679.794 303.018 677.923 303.018C676.065 303.018 675.008 301.27 675.008 299.318C675.008 297.313 675.984 295.51 677.936 295.51Z" fill="#1A1A18"/>
<path d="M684.743 303.832V299.929C684.743 298.411 684.716 297.313 684.648 296.161L684.689 296.148C685.15 297.137 685.76 298.181 686.397 299.197L689.298 303.832H690.492V294.698H689.38V298.52C689.38 299.942 689.407 301.054 689.516 302.273L689.489 302.287C689.055 301.352 688.526 300.39 687.848 299.319L684.919 294.698H683.631V303.832H684.743Z" fill="#1A1A18"/>
<path d="M697.597 303.832H698.75V295.023H697.733L695.807 296.053L696.038 296.961L697.57 296.134H697.597V303.832Z" fill="#1A1A18"/>
<path d="M269.441 1152.3C269.929 1152.63 270.892 1152.9 271.773 1152.9C273.929 1152.9 274.973 1151.66 274.973 1150.25C274.973 1148.91 274.186 1148.17 272.64 1147.57C271.38 1147.08 270.824 1146.66 270.824 1145.81C270.824 1145.19 271.298 1144.44 272.545 1144.44C273.373 1144.44 273.983 1144.71 274.281 1144.87L274.607 1143.91C274.2 1143.68 273.522 1143.46 272.586 1143.46C270.81 1143.46 269.63 1144.52 269.63 1145.94C269.63 1147.23 270.553 1148 272.044 1148.53C273.278 1149.01 273.766 1149.49 273.766 1150.35C273.766 1151.27 273.061 1151.91 271.854 1151.91C271.041 1151.91 270.268 1151.64 269.739 1151.31L269.441 1152.3Z" fill="#1A1A18"/>
<path d="M281.304 1149.87L282.281 1152.75H283.542L280.423 1143.61H279L275.895 1152.75H277.115L278.064 1149.87H281.304ZM278.308 1148.95L279.203 1146.31C279.379 1145.75 279.528 1145.2 279.664 1144.66H279.691C279.827 1145.19 279.962 1145.73 280.166 1146.32L281.061 1148.95H278.308Z" fill="#1A1A18"/>
<path d="M284.884 1152.75H289.969V1151.76H286.064V1143.61H284.884V1152.75Z" fill="#1A1A18"/>
<path d="M294.457 1143.46C292.016 1143.46 290.213 1145.36 290.213 1148.26C290.213 1151.03 291.908 1152.9 294.321 1152.9C296.653 1152.9 298.565 1151.23 298.565 1148.09C298.565 1145.37 296.952 1143.46 294.457 1143.46ZM294.403 1144.43C296.369 1144.43 297.318 1146.32 297.318 1148.14C297.318 1150.21 296.26 1151.93 294.389 1151.93C292.532 1151.93 291.474 1150.19 291.474 1148.23C291.474 1146.23 292.45 1144.43 294.403 1144.43Z" fill="#1A1A18"/>
<path d="M301.209 1152.75V1148.84C301.209 1147.33 301.182 1146.23 301.115 1145.08L301.155 1145.06C301.616 1146.05 302.226 1147.1 302.864 1148.11L305.765 1152.75H306.958V1143.61H305.847V1147.44C305.847 1148.86 305.874 1149.97 305.982 1151.19L305.955 1151.2C305.521 1150.27 304.992 1149.31 304.315 1148.23L301.386 1143.61H300.098V1152.75H301.209Z" fill="#1A1A18"/>
<path d="M317.1 1152.75V1151.76H313.142V1151.73L313.846 1151.08C315.704 1149.29 316.884 1147.98 316.884 1146.35C316.884 1145.09 316.083 1143.79 314.185 1143.79C313.168 1143.79 312.301 1144.17 311.691 1144.68L312.07 1145.52C312.477 1145.19 313.142 1144.78 313.941 1144.78C315.257 1144.78 315.69 1145.61 315.69 1146.5C315.677 1147.83 314.66 1148.97 312.409 1151.11L311.473 1152.02V1152.75H317.1Z" fill="#1A1A18"/>
</svg>
