<svg width="900" height="1328" viewBox="0 0 900 1328" fill="none" xmlns="http://www.w3.org/2000/svg">
<path fill-rule="evenodd" clip-rule="evenodd" d="M0.183594 479.291H19.3287H93.267V498.428H19.3287V573.823H0.183594V498.428V479.291ZM558.063 799.431V779.093H548.717V773.373H558.063H563.452H563.785V799.431H590.954V805.151H563.785V820.044V884.383H567.113V903.519H425.541V1308.59V1327.73H406.396H294.924V1308.59H406.396V903.519V896.964H391.902H386.18H379.762V884.383H386.18V773.373H415.324V779.093H391.902V884.383H406.396H425.541H486.978V779.093H462.475V773.373L486.978 773.373L492.7 773.373L502.045 773.373V779.093H492.7V884.383H558.063V820.044V805.151V799.431ZM221.214 699.008H226.937V683.542H228.124H234.433H240.155V672.779H234.433H19.3287V667.391H0.183594V672.779V683.542V724.522H19.3287V683.542H221.214V699.008ZM320.44 885.45H318.757L328.049 885.644V898.226L240.155 896.964H234.433H73.6368V903.519V1308.59H183.609V1327.73H73.6368H54.4917V1308.59V903.519H19.3287H0.183594V896.964V884.383V809.7H19.3287V884.383H54.4917H73.6368H221.214C221.214 844.817 221.214 793.423 221.214 753.857H226.937C226.937 765.106 226.937 762.125 226.937 773.373H314.718H320.44V779.093V885.45ZM314.718 885.365V779.093H226.937V863.498V884.383L314.718 885.365ZM711.806 683.542H669.533V799.431V805.151V884.383H715.94V903.519H657.383V884.383H663.81V805.151H636.641V799.431H663.81V672.779H669.533H711.806V683.542ZM825.734 221.22V177.356H844.879V221.22V240.357V315.349H825.734V288.687V240.357V221.22ZM417.904 221.22V19.4578V0.321167H437.049H546.677V19.4578H437.049V168.346V221.22V240.357V288.687V479.291V485.061H491.425V479.291H528.895V485.061H566.417V498.428H528.895V683.542H528.731H515.741H369.881V672.779H515.741V498.428H491.425H437.049H417.904H396.396V479.291H417.904V240.357V221.22ZM825.734 19.4578H716.106V0.321167H825.734H844.879V19.4578V94.4506H825.734V19.4578ZM758.478 672.779H826.486L879.463 619.623V553.524L825.734 501.684V398.255H844.879V493.562L898.608 545.402V626.464L899.14 626.995L844.879 681.231V683.542V734.042H825.734V683.542H758.478V672.779ZM295.361 672.779H319.104V683.542H295.361H289.638V672.779V498.428H186.326V479.291H302.281V498.428H295.361V672.779ZM844.879 804.568V884.383V903.519H825.734H783.499V884.383H825.734V804.568H844.879Z" fill="#868786"/>
</svg>
